<?xml version="1.0" encoding="UTF-8"?>
<svg id="Capa_1" data-name="Capa 1" xmlns="http://www.w3.org/2000/svg" viewBox="0 0 785 1080">
  <defs>
    <style>
      .cls-1 {
        fill: #176d5d;
      }

      .cls-2 {
        fill: #f3f0e4;
      }

      .cls-3 {
        fill: #2f4c7c;
      }
    </style>
  </defs>
  <g>
    <circle class="cls-1" cx="377.44" cy="378.1" r="350.07"/>
    <circle class="cls-2" cx="377.44" cy="378.1" r="304.25"/>
    <path class="cls-1" d="M234.84,387.38h-104.45l47.33-81.89c2.17-3.78,7.62-3.78,9.8,0l47.32,81.89Z"/>
    <path class="cls-1" d="M358.97,289.03l-23.52,367.03c-116.21-17.49-208.98-106.54-232.03-220.84,17.22,25.3,46.27,41.91,79.19,41.91,48.6,0,88.91-36.33,94.93-83.4.43-3.38-2.23-6.36-5.63-6.36h-18.39l-57.01-98.64c-2.18-3.78.54-8.5,4.9-8.5h149.5c4.74,0,8.47,4.07,8.05,8.79Z"/>
    <path class="cls-1" d="M651.46,435.16c-23.01,114.31-115.77,203.36-231.96,220.89l-23.58-367.02c-.42-4.72,3.31-8.79,8.05-8.79h149.49c4.35,0,7.08,4.72,4.9,8.5l-57.01,98.64h-18.39c-3.4,0-6.05,2.98-5.63,6.36,6.01,47.06,46.23,83.4,94.93,83.4,32.87,0,61.96-16.63,79.2-41.97Z"/>
    <path class="cls-1" d="M520.03,387.38l47.33-81.89c2.18-3.78,7.63-3.78,9.8,0l47.33,81.89h-104.46Z"/>
    <path class="cls-3" d="M656.97,379.67c0,2.58-.04,5.15-.11,7.71h-13.69l-70.9-122.7v-.62h-171.13c-4.19,0-7.68-3.2-8.05-7.38l-6.15-70.19c7.26-3.55,12.29-11.01,12.29-19.59,0-6-2.46-11.44-6.4-15.39-3.95-3.95-9.39-6.4-15.39-6.4s-11.44,2.46-15.39,6.4c-3.95,3.95-6.39,9.39-6.39,15.39,0,4.29,1.25,8.29,3.42,11.68,2.16,3.38,5.24,6.13,8.86,7.9l-6.13,70.2c-.37,4.17-3.86,7.38-8.06,7.38h-171.12v.62l-70.9,122.7h-13.69c-.08-2.56-.11-5.13-.11-7.71,0-154.38,125.15-279.53,279.53-279.53s279.54,125.15,279.54,279.53Z"/>
  </g>
  <g>
    <path class="cls-3" d="M186.35,911.88c0,33.81-39.04,51.71-79.63,51.71-20.61,0-64.02-7.96-79.95-15.91l19.36-31.33c14.68,19.64,34.66,35.3,60.58,35.3,16.86,0,35.91-9.95,35.91-27.1,0-40.77-105.87-31.57-105.87-91.24,0-32.32,38.41-47.24,77.76-47.24,25.61,0,53.4,7.96,69.33,15.91l-19.05,31.33c-13.74-20.14-31.85-35.3-50.28-35.3s-34.98,7.46-34.98,26.6c0,37.54,106.8,34.81,106.8,87.27Z"/>
    <path class="cls-3" d="M533.3,954.39h-31.85l-63.39-121.83v106.66c.31,6.71,2.5,17.65,7.18,22.63h-36.54c4.68-4.97,7.18-15.91,7.18-22.63v-128.79c0-5.22-2.5-17.65-7.18-22.63h59.96c-.31,19.89,49.97,104.42,60.27,122.82,30.29-59.67,56.21-116.36,55.28-122.82h59.96c-4.68,4.97-7.18,15.91-7.18,22.63v128.79c0,6.71,2.5,17.65,7.18,22.63h-59.02c4.68-4.97,7.18-15.91,7.18-22.63v-116.35c-2.19,3.73-14.99,26.35-46.84,94.48-4.68,9.7-12.8,26.11-12.18,37.05Z"/>
    <path class="cls-3" d="M721.29,939.23c0,6.71,2.5,17.65,7.18,22.63h-57.15c4.68-4.97,7.18-15.91,7.18-22.63v-128.79c0-5.22-2.5-17.65-7.18-22.63h57.15c-4.68,4.97-7.18,15.91-7.18,22.63v128.79Z"/>
    <path class="cls-3" d="M354.98,810.44c0-6.71-2.5-17.65-7.18-22.63h36.54c-4.68,4.97-7.18,17.4-7.18,22.63v90.25c0,44.26-35.29,63.15-78.39,63.15-45.59,0-79.63-18.89-79.63-63.15v-90.25c0-5.22-2.5-17.65-7.18-22.63h59.02c-4.68,4.97-7.18,15.91-7.18,22.63v90.25c0,25.11,13.43,52.21,44.34,52.21,33.41,0,46.84-27.1,46.84-52.21v-90.25Z"/>
    <path class="cls-1" d="M559.11,787.82c-3.32,9.56-14,34.19-31.63,70.54-4.86-8.73-9.94-18.04-14.68-27.09-15.39-29.45-18.8-40.39-19.54-43.45h65.85Z"/>
  </g>
  <g>
    <path class="cls-1" d="M66.95,1024.57v23.9c0,1.43-1.17,2.59-2.61,2.59h0c-1.44,0-2.61-1.16-2.61-2.59v-20.63s-14.5,17.47-14.5,17.47h-.3l-14.5-17.47v20.71c0,1.39-1.13,2.51-2.53,2.51h0c-1.39,0-2.53-1.12-2.53-2.51v-23.98c0-2.09,1.7-3.78,3.8-3.78h.04c1.15,0,2.23.51,2.96,1.4l13.01,15.94,13.01-15.94c.72-.88,1.81-1.4,2.96-1.4h0c2.1,0,3.8,1.69,3.8,3.78Z"/>
    <path class="cls-1" d="M108.15,1048.79h0c0,1.25-1.02,2.27-2.29,2.27h-24.86c-1.77,0-3.2-1.42-3.2-3.18v-23.91c0-1.76,1.43-3.18,3.2-3.18h24.43c1.26,0,2.29,1.02,2.29,2.27h0c0,1.25-1.02,2.27-2.29,2.27h-22.45s0,8.09,0,8.09h20.81v4.54h-20.81v8.56h22.88c1.26,0,2.29,1.02,2.29,2.27Z"/>
    <path class="cls-1" d="M143.53,1025.34h-11.61s0,23.13,0,23.13c0,1.43-1.17,2.59-2.61,2.59h0c-1.44,0-2.61-1.16-2.61-2.59v-23.13h-11.52c-1.26,0-2.29-1.02-2.29-2.27h0c0-1.25,1.02-2.27,2.29-2.27h28.35c1.26,0,2.29,1.02,2.29,2.27h0c0,1.25-1.02,2.27-2.29,2.27Z"/>
    <path class="cls-1" d="M179.76,1050.22l-8.72-10.14h-12.85v8.39c0,1.43-1.17,2.59-2.61,2.59h0c-1.44,0-2.61-1.16-2.61-2.59v-24.49c0-1.76,1.43-3.18,3.2-3.18h17.53c7.1,0,12.32,3.37,12.32,9.64,0,5.23-3.66,8.43-8.97,9.38l6.38,7.26c1.37,1.56.26,3.99-1.82,3.99h0c-.71,0-1.38-.31-1.84-.84ZM173.35,1035.63c4.35,0,7.32-1.38,7.32-5.15s-2.96-5.15-7.32-5.15h-15.2v10.29h15.2Z"/>
    <path class="cls-1" d="M192.64,1035.93c0-9.99,7.23-16.04,18.94-16.04s18.94,6.05,18.94,16.04-7.23,16.04-18.94,16.04-18.94-6.05-18.94-16.04ZM225.17,1035.93c0-7.35-5.31-11.46-13.59-11.46s-13.63,4.11-13.63,11.46,5.31,11.46,13.63,11.46,13.59-4.11,13.59-11.46Z"/>
    <path class="cls-1" d="M266.98,1048.77h0c0,1.27-1.03,2.29-2.31,2.29h-22.19c-1.77,0-3.2-1.42-3.2-3.18v-24.49c0-1.43,1.17-2.59,2.61-2.59h0c1.44,0,2.61,1.16,2.61,2.59v23.09s20.16,0,20.16,0c1.27,0,2.31,1.03,2.31,2.29Z"/>
    <path class="cls-1" d="M270.38,1035.93c0-9.99,7.23-16.04,18.94-16.04s18.94,6.05,18.94,16.04-7.23,16.04-18.94,16.04-18.94-6.05-18.94-16.04ZM302.91,1035.93c0-7.35-5.31-11.46-13.59-11.46s-13.63,4.11-13.63,11.46,5.31,11.46,13.63,11.46,13.59-4.11,13.59-11.46Z"/>
    <path class="cls-1" d="M351.29,1044.28c-2.79,4.45-8.84,7.7-17.2,7.7-12.02,0-19.2-6.05-19.2-16.04s7.19-16.04,19.12-16.04c5.69,0,10.02,1.6,13.11,3.78,1.4.99,1.41,3.05.01,4.04h-.01c-.95.69-2.22.58-3.12-.17-2.51-2.09-5.69-3.11-9.94-3.11-8.58,0-13.85,3.89-13.85,11.5s5.36,11.5,14.11,11.5c5.36,0,9.71-1.38,11.93-4.84v-3.46h-10.47c-1.24,0-2.24-1-2.24-2.23h0c0-1.23,1-2.23,2.24-2.23h12.32c1.77,0,3.2,1.42,3.2,3.18v6.42Z"/>
    <path class="cls-1" d="M362.22,1017.34h0c-1.39,0-2.09-1.67-1.1-2.65l3.65-3.6c.29-.29.69-.45,1.1-.45h1.64c1.53,0,2.15,1.97.88,2.83l-5.29,3.6c-.26.18-.57.27-.88.27ZM360.01,1048.47v-25.08c0-1.43,1.17-2.59,2.61-2.59h0c1.44,0,2.61,1.16,2.61,2.59v25.08c0,1.43-1.17,2.59-2.61,2.59h0c-1.44,0-2.61-1.16-2.61-2.59Z"/>
    <path class="cls-1" d="M400.94,1043.76h-19.55l-3.18,5.99c-.43.81-1.27,1.32-2.19,1.32h0c-1.88,0-3.08-1.99-2.18-3.64l14.52-26.63h5.75l14.48,26.63c.89,1.64-.3,3.63-2.18,3.63h-.06c-.92,0-1.76-.5-2.19-1.31l-3.22-6ZM398.63,1039.35l-7.45-14.01-7.45,14.01h14.89Z"/>
    <path class="cls-1" d="M468.57,1043.76h-19.55l-3.88,7.31h-5.66l16.5-30.27h5.75l16.46,30.27h-5.71l-3.92-7.31ZM466.27,1039.35l-7.45-14.01-7.45,14.01h14.89Z"/>
    <path class="cls-1" d="M482.82,1020.8l12.85,24.95,12.85-24.95h5.7l-15.81,30.27h-5.57l-15.81-30.27h5.79Z"/>
    <path class="cls-1" d="M542.13,1043.76h-19.55l-3.88,7.31h-5.66l16.5-30.27h5.75l16.46,30.27h-5.71l-3.92-7.31ZM539.82,1039.35l-7.45-14.01-7.45,14.01h14.89Z"/>
    <path class="cls-1" d="M591.91,1020.8v30.27h-4.62l-23.82-23.87v23.87h-5.05v-30.27h5.57l22.82,22.96v-22.96h5.09Z"/>
    <path class="cls-1" d="M632.46,1024.43l-24.43,22.18h25.13v4.45h-32.96v-3.63l24.43-22.18h-23.65v-4.45h31.48v3.63Z"/>
    <path class="cls-1" d="M666.38,1043.76h-19.55l-3.88,7.31h-5.66l16.5-30.27h5.75l16.46,30.27h-5.71l-3.92-7.31ZM664.07,1039.35l-7.45-14.01-7.45,14.01h14.89Z"/>
    <path class="cls-1" d="M716.68,1035.93c0,9.34-7.23,15.13-18.55,15.13h-15.46v-30.27h15.46c11.32,0,18.55,5.79,18.55,15.13ZM711.33,1035.93c0-7-5.57-10.59-13.59-10.59h-9.84v21.19h9.84c8.01,0,13.59-3.59,13.59-10.59Z"/>
    <path class="cls-1" d="M748.61,1043.76h-19.55l-3.88,7.31h-5.66l16.5-30.27h5.75l16.46,30.27h-5.71l-3.92-7.31ZM746.3,1039.35l-7.45-14.01-7.45,14.01h14.89Z"/>
  </g>
</svg>