<?xml version="1.0" encoding="UTF-8"?>
<svg id="Capa_1" data-name="Capa 1" xmlns="http://www.w3.org/2000/svg" viewBox="0 0 2250 592.48">
  <defs>
    <style>
      .cls-1 {
        fill: #176d5d;
      }

      .cls-2 {
        fill: #f3f0e4;
      }

      .cls-3 {
        fill: #2f4c7c;
      }
    </style>
  </defs>
  <g>
    <circle class="cls-1" cx="301.94" cy="296.24" r="273.75"/>
    <circle class="cls-2" cx="301.94" cy="296.24" r="237.92"/>
    <path class="cls-1" d="M190.43,303.5h-81.68l37.01-64.04c1.7-2.95,5.96-2.95,7.66,0l37,64.04Z"/>
    <path class="cls-1" d="M287.5,226.59l-18.39,287.01c-90.87-13.68-163.42-83.31-181.44-172.69,13.46,19.79,36.18,32.77,61.92,32.77,38,0,69.52-28.41,74.24-65.21.33-2.64-1.74-4.97-4.4-4.97h-14.38l-44.58-77.14c-1.71-2.95.42-6.65,3.83-6.65h116.91c3.71,0,6.62,3.18,6.3,6.88Z"/>
    <path class="cls-1" d="M516.22,340.86c-18,89.38-90.53,159.02-181.39,172.73l-18.44-287c-.33-3.69,2.59-6.88,6.3-6.88h116.9c3.41,0,5.53,3.69,3.83,6.65l-44.58,77.14h-14.38c-2.66,0-4.73,2.33-4.4,4.97,4.7,36.8,36.15,65.21,74.24,65.21,25.7,0,48.45-13,61.93-32.82Z"/>
    <path class="cls-1" d="M413.44,303.5l37.01-64.04c1.71-2.95,5.96-2.95,7.66,0l37.01,64.04h-81.68Z"/>
    <path class="cls-3" d="M520.53,297.46c0,2.02-.03,4.03-.09,6.03h-10.7l-55.44-95.95v-.48h-133.82c-3.28,0-6.01-2.5-6.3-5.77l-4.81-54.89c5.68-2.77,9.61-8.61,9.61-15.32,0-4.69-1.92-8.95-5.01-12.03-3.09-3.09-7.34-5.01-12.03-5.01s-8.95,1.92-12.03,5.01c-3.09,3.09-5,7.34-5,12.03,0,3.35.98,6.48,2.67,9.13,1.69,2.64,4.09,4.79,6.93,6.18l-4.79,54.9c-.29,3.26-3.02,5.77-6.31,5.77h-133.81v.48l-55.44,95.95h-10.7c-.06-2-.09-4.01-.09-6.03,0-120.72,97.86-218.58,218.58-218.58s218.59,97.86,218.59,218.58Z"/>
  </g>
  <g>
    <g>
      <path class="cls-3" d="M1045.62,336.73c0,73.36-84.69,112.2-172.77,112.2-44.72,0-138.9-17.26-173.45-34.52l42.01-67.97c31.84,42.61,75.21,76.6,131.44,76.6,36.59,0,77.92-21.58,77.92-58.8,0-88.46-229.69-68.5-229.69-197.96,0-70.12,83.34-102.49,168.71-102.49,55.56,0,115.86,17.26,150.41,34.52l-41.33,67.96c-29.81-43.69-69.11-76.6-109.08-76.6s-75.89,16.18-75.89,57.72c0,81.45,231.72,75.52,231.72,189.33Z"/>
      <path class="cls-3" d="M1798.36,428.96h-69.11l-137.54-264.31v231.41c.68,14.57,5.42,38.3,15.58,49.09h-79.27c10.16-10.79,15.58-34.52,15.58-49.09V116.65c0-11.33-5.42-38.3-15.58-49.09h130.09c-.67,43.15,108.41,226.55,130.77,266.47,65.72-129.46,121.96-252.44,119.93-266.47h130.09c-10.16,10.79-15.58,34.52-15.58,49.09v279.41c0,14.57,5.42,38.3,15.58,49.09h-128.05c10.16-10.79,15.59-34.52,15.59-49.09v-252.44c-4.75,8.09-32.52,57.18-101.63,204.97-10.16,21.04-27.78,56.64-26.42,80.37Z"/>
      <path class="cls-3" d="M2206.22,396.06c0,14.57,5.42,38.3,15.58,49.09h-123.99c10.16-10.79,15.59-34.52,15.59-49.09V116.65c0-11.33-5.42-38.3-15.59-49.09h123.99c-10.16,10.79-15.58,34.52-15.58,49.09v279.41Z"/>
      <path class="cls-3" d="M1411.48,116.65c0-14.57-5.42-38.3-15.58-49.09h79.27c-10.16,10.79-15.58,37.76-15.58,49.09v195.81c0,96.02-76.56,137.01-170.06,137.01-98.92,0-172.77-40.99-172.77-137.01V116.65c0-11.33-5.42-38.3-15.58-49.09h128.05c-10.16,10.79-15.58,34.52-15.58,49.09v195.81c0,54.48,29.13,113.28,96.21,113.28,72.5,0,101.63-58.8,101.63-113.28V116.65Z"/>
      <path class="cls-1" d="M1854.37,67.56c-7.2,20.74-30.38,74.17-68.63,153.03-10.54-18.93-21.57-39.13-31.84-58.77-33.38-63.89-40.79-87.63-42.39-94.26h142.86Z"/>
    </g>
    <g>
      <path class="cls-1" d="M781.85,512.55v49.78c0,2.98-2.44,5.4-5.44,5.4h0c-3.01,0-5.44-2.42-5.44-5.4v-42.96s-30.21,36.39-30.21,36.39h-.63l-30.21-36.39v43.14c0,2.89-2.36,5.22-5.26,5.22h0c-2.91,0-5.26-2.34-5.26-5.22v-49.96c0-4.35,3.55-7.87,7.92-7.87h.09c2.39,0,4.65,1.07,6.16,2.91l27.1,33.2,27.1-33.2c1.5-1.84,3.77-2.91,6.16-2.91h0c4.38,0,7.92,3.52,7.92,7.87Z"/>
      <path class="cls-1" d="M867.67,563h0c0,2.61-2.13,4.73-4.76,4.73h-51.79c-3.68,0-6.67-2.97-6.67-6.62v-49.8c0-3.66,2.99-6.62,6.67-6.62h50.89c2.63,0,4.76,2.12,4.76,4.73h0c0,2.61-2.13,4.73-4.76,4.73h-46.76s0,16.84,0,16.84h43.36v9.46h-43.36v17.83h47.67c2.63,0,4.76,2.12,4.76,4.73Z"/>
      <path class="cls-1" d="M941.38,514.14h-24.17s0,48.19,0,48.19c0,2.98-2.44,5.4-5.44,5.4h0c-3.01,0-5.44-2.42-5.44-5.4v-48.19h-23.99c-2.63,0-4.76-2.12-4.76-4.73h0c0-2.61,2.13-4.73,4.76-4.73h59.05c2.63,0,4.76,2.12,4.76,4.73h0c0,2.61-2.13,4.73-4.76,4.73Z"/>
      <path class="cls-1" d="M1016.84,565.97l-18.17-21.12h-26.76v17.47c0,2.98-2.44,5.4-5.44,5.4h0c-3.01,0-5.44-2.42-5.44-5.4v-51.02c0-3.66,2.99-6.62,6.67-6.62h36.51c14.79,0,25.67,7.02,25.67,20.08,0,10.9-7.62,17.56-18.69,19.54l13.29,15.12c2.85,3.24.53,8.3-3.8,8.3h0c-1.48,0-2.88-.64-3.84-1.76ZM1003.48,535.58c9.07,0,15.24-2.88,15.24-10.72s-6.17-10.72-15.24-10.72h-31.66v21.44h31.66Z"/>
      <path class="cls-1" d="M1043.67,536.21c0-20.81,15.06-33.42,39.46-33.42s39.46,12.61,39.46,33.42-15.06,33.42-39.46,33.42-39.46-12.61-39.46-33.42ZM1111.43,536.21c0-15.31-11.07-23.87-28.3-23.87s-28.39,8.56-28.39,23.87,11.07,23.87,28.39,23.87,28.3-8.56,28.3-23.87Z"/>
      <path class="cls-1" d="M1198.52,562.96h0c0,2.64-2.15,4.77-4.81,4.77h-46.21c-3.68,0-6.67-2.97-6.67-6.62v-51.02c0-2.98,2.44-5.4,5.44-5.4h0c3.01,0,5.44,2.42,5.44,5.4v48.1s42,0,42,0c2.66,0,4.81,2.14,4.81,4.77Z"/>
      <path class="cls-1" d="M1205.6,536.21c0-20.81,15.06-33.42,39.46-33.42s39.46,12.61,39.46,33.42-15.06,33.42-39.46,33.42-39.46-12.61-39.46-33.42ZM1273.36,536.21c0-15.31-11.07-23.87-28.3-23.87s-28.39,8.56-28.39,23.87,11.07,23.87,28.39,23.87,28.3-8.56,28.3-23.87Z"/>
      <path class="cls-1" d="M1374.14,553.59c-5.81,9.28-18.41,16.03-35.83,16.03-25.03,0-40-12.61-40-33.42s14.97-33.42,39.82-33.42c11.85,0,20.87,3.32,27.31,7.88,2.91,2.06,2.93,6.35.02,8.42l-.03.02c-1.99,1.41-4.63,1.18-6.5-.38-5.22-4.36-11.86-6.48-20.71-6.48-17.87,0-28.85,8.11-28.85,23.96s11.16,23.96,29.39,23.96c11.16,0,20.23-2.88,24.86-10.09v-7.21h-21.82c-2.58,0-4.67-2.08-4.67-4.64h0c0-2.56,2.09-4.64,4.67-4.64h25.67c3.68,0,6.67,2.97,6.67,6.62v13.37Z"/>
      <path class="cls-1" d="M1396.91,497.48h0c-2.9,0-4.35-3.49-2.29-5.52l7.61-7.51c.61-.6,1.43-.94,2.29-.94h3.41c3.19,0,4.47,4.09,1.84,5.89l-11.02,7.51c-.54.37-1.18.57-1.84.57ZM1392.29,562.33v-52.24c0-2.98,2.44-5.4,5.44-5.4h0c3.01,0,5.44,2.42,5.44,5.4v52.24c0,2.98-2.44,5.4-5.44,5.4h0c-3.01,0-5.44-2.42-5.44-5.4Z"/>
      <path class="cls-1" d="M1477.56,552.51h-40.73l-6.62,12.48c-.89,1.68-2.65,2.74-4.57,2.74h0c-3.91,0-6.41-4.15-4.54-7.57l30.25-55.47h11.97l30.17,55.48c1.86,3.42-.63,7.57-4.55,7.57h-.12c-1.91,0-3.66-1.05-4.56-2.72l-6.71-12.5ZM1472.75,543.32l-15.51-29.18-15.51,29.18h31.02Z"/>
      <path class="cls-1" d="M1618.45,552.51h-40.73l-8.07,15.22h-11.79l34.38-63.05h11.97l34.29,63.05h-11.88l-8.16-15.22ZM1613.64,543.32l-15.51-29.18-15.51,29.18h31.02Z"/>
      <path class="cls-1" d="M1648.11,504.68l26.76,51.97,26.76-51.97h11.88l-32.93,63.05h-11.61l-32.93-63.05h12.06Z"/>
      <path class="cls-1" d="M1771.67,552.51h-40.73l-8.07,15.22h-11.79l34.38-63.05h11.97l34.29,63.05h-11.88l-8.16-15.22ZM1766.86,543.32l-15.51-29.18-15.51,29.18h31.02Z"/>
      <path class="cls-1" d="M1875.36,504.68v63.05h-9.61l-49.62-49.72v49.72h-10.52v-63.05h11.61l47.53,47.83v-47.83h10.61Z"/>
      <path class="cls-1" d="M1959.82,512.25l-50.89,46.21h52.34v9.28h-68.67v-7.57l50.89-46.2h-49.25v-9.28h65.58v7.57Z"/>
      <path class="cls-1" d="M2030.49,552.51h-40.73l-8.07,15.22h-11.79l34.38-63.05h11.97l34.29,63.05h-11.88l-8.16-15.22ZM2025.68,543.32l-15.51-29.18-15.51,29.18h31.02Z"/>
      <path class="cls-1" d="M2135.26,536.21c0,19.45-15.06,31.52-38.64,31.52h-32.2v-63.05h32.2c23.58,0,38.64,12.07,38.64,31.52ZM2124.11,536.21c0-14.59-11.61-22.07-28.3-22.07h-20.5v44.13h20.5c16.69,0,28.3-7.47,28.3-22.07Z"/>
      <path class="cls-1" d="M2201.76,552.51h-40.73l-8.07,15.22h-11.79l34.38-63.05h11.97l34.29,63.05h-11.88l-8.16-15.22ZM2196.95,543.32l-15.51-29.18-15.51,29.18h31.02Z"/>
    </g>
  </g>
</svg>