<?xml version="1.0" encoding="UTF-8"?>
<svg id="Capa_1" data-name="Capa 1" xmlns="http://www.w3.org/2000/svg" viewBox="0 0 785 1080">
  <g>
    <path d="M234.84,387.38h-104.45l47.33-81.89c2.17-3.78,7.62-3.78,9.8,0l47.32,81.89Z"/>
    <path d="M358.97,289.03l-23.52,367.03c-116.21-17.49-208.98-106.53-232.02-220.84,17.22,25.3,46.27,41.91,79.18,41.91,48.6,0,88.91-36.33,94.94-83.4.42-3.37-2.23-6.35-5.63-6.35h-18.39l-57.01-98.64c-2.18-3.78.54-8.5,4.9-8.5h149.5c4.74,0,8.47,4.07,8.05,8.79Z"/>
    <path d="M651.46,435.16c-23.02,114.31-115.77,203.36-231.96,220.89l-23.59-367.02c-.41-4.72,3.31-8.79,8.06-8.79h149.49c4.35,0,7.08,4.72,4.89,8.5l-57,98.64h-18.4c-3.39,0-6.05,2.98-5.62,6.35,6.01,47.07,46.23,83.4,94.93,83.4,32.87,0,61.96-16.63,79.2-41.97Z"/>
    <path d="M520.03,387.38l47.33-81.89c2.18-3.78,7.63-3.78,9.8,0l47.33,81.89h-104.46Z"/>
    <path d="M377.44,28.03C184.1,28.03,27.37,184.76,27.37,378.1s156.73,350.07,350.07,350.07,350.07-156.73,350.07-350.07S570.78,28.03,377.44,28.03ZM377.44,682.35c-168.04,0-304.26-136.22-304.26-304.25S209.4,73.85,377.44,73.85s304.25,136.22,304.25,304.25-136.22,304.25-304.25,304.25Z"/>
    <path d="M656.97,379.67c0,2.58-.04,5.15-.11,7.71h-13.69l-70.91-122.7v-.62h-171.13c-4.19,0-7.68-3.2-8.05-7.38l-6.15-70.19c7.26-3.55,12.29-11.02,12.29-19.59,0-6-2.45-11.44-6.4-15.39-3.95-3.95-9.39-6.4-15.39-6.4s-11.44,2.45-15.38,6.4c-3.95,3.95-6.4,9.39-6.4,15.39,0,4.29,1.25,8.29,3.42,11.68,2.16,3.37,5.23,6.12,8.86,7.9l-6.13,70.2c-.37,4.17-3.86,7.38-8.06,7.38h-171.13v.62l-70.9,122.7h-13.69c-.07-2.56-.11-5.13-.11-7.71,0-154.38,125.15-279.53,279.52-279.53s279.54,125.15,279.54,279.53Z"/>
    <path d="M234.84,387.38h-104.45l47.33-81.89c2.17-3.78,7.62-3.78,9.8,0l47.32,81.89Z"/>
    <path d="M358.97,289.03l-23.52,367.03c-116.21-17.49-208.98-106.53-232.02-220.84,17.22,25.3,46.27,41.91,79.18,41.91,48.6,0,88.91-36.33,94.94-83.4.42-3.37-2.23-6.35-5.63-6.35h-18.39l-57.01-98.64c-2.18-3.78.54-8.5,4.9-8.5h149.5c4.74,0,8.47,4.07,8.05,8.79Z"/>
    <path d="M651.46,435.16c-23.02,114.31-115.77,203.36-231.96,220.89l-23.59-367.02c-.41-4.72,3.31-8.79,8.06-8.79h149.49c4.35,0,7.08,4.72,4.89,8.5l-57,98.64h-18.4c-3.39,0-6.05,2.98-5.62,6.35,6.01,47.07,46.23,83.4,94.93,83.4,32.87,0,61.96-16.63,79.2-41.97Z"/>
    <path d="M520.03,387.38l47.33-81.89c2.18-3.78,7.63-3.78,9.8,0l47.33,81.89h-104.46Z"/>
    <path d="M656.97,379.67c0,2.58-.04,5.15-.11,7.71h-13.69l-70.91-122.7v-.62h-171.13c-4.19,0-7.68-3.2-8.05-7.38l-6.15-70.19c7.26-3.55,12.29-11.02,12.29-19.59,0-6-2.45-11.44-6.4-15.39-3.95-3.95-9.39-6.4-15.39-6.4s-11.44,2.45-15.38,6.4c-3.95,3.95-6.4,9.39-6.4,15.39,0,4.29,1.25,8.29,3.42,11.68,2.16,3.37,5.23,6.12,8.86,7.9l-6.13,70.2c-.37,4.17-3.86,7.38-8.06,7.38h-171.13v.62l-70.9,122.7h-13.69c-.07-2.56-.11-5.13-.11-7.71,0-154.38,125.15-279.53,279.52-279.53s279.54,125.15,279.54,279.53Z"/>
    <path d="M234.84,387.38h-104.45l47.33-81.89c2.17-3.78,7.62-3.78,9.8,0l47.32,81.89Z"/>
    <path d="M358.97,289.03l-23.52,367.03c-116.21-17.49-208.98-106.53-232.02-220.84,17.22,25.3,46.27,41.91,79.18,41.91,48.6,0,88.91-36.33,94.94-83.4.42-3.37-2.23-6.35-5.63-6.35h-18.39l-57.01-98.64c-2.18-3.78.54-8.5,4.9-8.5h149.5c4.74,0,8.47,4.07,8.05,8.79Z"/>
    <path d="M651.46,435.16c-23.02,114.31-115.77,203.36-231.96,220.89l-23.59-367.02c-.41-4.72,3.31-8.79,8.06-8.79h149.49c4.35,0,7.08,4.72,4.89,8.5l-57,98.64h-18.4c-3.39,0-6.05,2.98-5.62,6.35,6.01,47.07,46.23,83.4,94.93,83.4,32.87,0,61.96-16.63,79.2-41.97Z"/>
    <path d="M624.49,387.38h-104.46l47.33-81.89c2.18-3.78,7.63-3.78,9.8,0l47.33,81.89Z"/>
    <path d="M656.97,379.67c0,2.58-.04,5.15-.11,7.71h-13.69l-70.91-122.7v-.62h-171.13c-4.19,0-7.68-3.2-8.05-7.38l-6.15-70.19c7.26-3.55,12.29-11.02,12.29-19.59,0-6-2.45-11.44-6.4-15.39-3.95-3.95-9.39-6.4-15.39-6.4s-11.44,2.45-15.38,6.4c-3.95,3.95-6.4,9.39-6.4,15.39,0,4.29,1.25,8.29,3.42,11.68,2.16,3.37,5.23,6.12,8.86,7.9l-6.13,70.2c-.37,4.17-3.86,7.38-8.06,7.38h-171.13v.62l-70.9,122.7h-13.69c-.07-2.56-.11-5.13-.11-7.71,0-154.38,125.15-279.53,279.52-279.53s279.54,125.15,279.54,279.53Z"/>
  </g>
  <g>
    <path d="M79.55,824.61c0-19.14,17.17-26.6,34.97-26.6s36.54,15.17,50.28,35.3l19.05-31.32c-15.92-7.96-43.72-15.91-69.33-15.91-39.34,0-77.76,14.91-77.76,47.23,0,59.67,105.87,50.48,105.87,91.25,0,17.15-19.05,27.1-35.91,27.1-25.92,0-45.91-15.66-60.59-35.3l-19.36,31.32c15.93,7.96,59.34,15.91,79.95,15.91,40.59,0,79.63-17.9,79.63-51.71,0-52.46-106.8-49.73-106.8-87.27Z"/>
    <path d="M636.98,810.44c0-6.71,2.5-17.65,7.18-22.62h-59.96c.94,6.46-24.98,63.15-55.27,122.82-10.31-18.4-60.59-102.93-60.28-122.82h-59.95c4.68,4.97,7.18,17.4,7.18,22.62v128.79c0,6.71-2.5,17.65-7.18,22.62h36.53c-4.68-4.97-6.87-15.91-7.18-22.62v-106.66l63.4,121.82h31.85c-.62-10.93,7.49-27.34,12.18-37.04,31.85-68.12,44.66-90.75,46.84-94.48v116.36c0,6.71-2.5,17.65-7.18,22.62h59.02c-4.68-4.97-7.18-15.91-7.18-22.62v-128.79Z"/>
    <path d="M721.29,810.44c0-6.71,2.5-17.65,7.18-22.62h-57.15c4.69,4.97,7.19,17.4,7.19,22.62v128.79c0,6.71-2.5,17.65-7.19,22.62h57.15c-4.68-4.97-7.18-15.91-7.18-22.62v-128.79Z"/>
    <path d="M347.8,787.82c4.68,4.97,7.18,15.91,7.18,22.62v90.25c0,25.11-13.43,52.21-46.84,52.21-30.92,0-44.35-27.1-44.35-52.21v-90.25c0-6.71,2.5-17.65,7.19-22.62h-59.03c4.69,4.97,7.19,17.4,7.19,22.62v90.25c0,44.26,34.04,63.15,79.63,63.15,43.1,0,78.39-18.89,78.39-63.15v-90.25c0-5.22,2.49-17.65,7.18-22.62h-36.54Z"/>
    <path d="M559.11,787.82c-3.32,9.56-14,34.19-31.63,70.54-4.86-8.73-9.94-18.04-14.68-27.09-15.39-29.45-18.8-40.39-19.54-43.45h65.85Z"/>
  </g>
  <g>
    <path d="M65.84,1021.9c-.69-.68-1.64-1.1-2.69-1.1-1.15,0-2.24.51-2.96,1.4l-13.01,15.94-13.01-15.94c-.72-.89-1.81-1.4-2.96-1.4h-.04c-2.1,0-3.8,1.69-3.8,3.77v23.99c0,.69.28,1.32.74,1.77.45.45,1.09.73,1.78.73,1.4,0,2.53-1.12,2.53-2.5v-20.72l14.5,17.47h.3l14.5-17.47v20.63c0,.71.29,1.36.77,1.83.47.47,1.13.76,1.85.76,1.44,0,2.61-1.16,2.61-2.59v-23.9c0-1.04-.43-1.98-1.11-2.67Z"/>
    <path d="M105.86,1046.52h-22.88v-8.56h20.82v-4.54h-20.82v-8.08h22.45c.63,0,1.2-.26,1.61-.67.42-.41.67-.97.67-1.6,0-1.26-1.02-2.27-2.28-2.27h-24.43c-1.77,0-3.2,1.42-3.2,3.18v23.9c0,1.76,1.43,3.18,3.2,3.18h24.86c1.27,0,2.29-1.01,2.29-2.27s-1.02-2.27-2.29-2.27Z"/>
    <path d="M143.53,1020.8h-28.34c-.63,0-1.21.25-1.62.66-.41.41-.67.98-.67,1.61,0,1.25,1.02,2.27,2.29,2.27h11.51v23.13c0,.71.29,1.36.77,1.83.47.47,1.13.76,1.85.76,1.44,0,2.61-1.16,2.61-2.59v-23.13h11.6c.63,0,1.21-.26,1.62-.67.41-.41.67-.97.67-1.6,0-1.26-1.02-2.27-2.29-2.27Z"/>
    <path d="M177.05,1039.82c5.31-.95,8.97-4.15,8.97-9.38,0-6.27-5.23-9.64-12.33-9.64h-17.52c-1.77,0-3.2,1.42-3.2,3.18v24.49c0,.71.29,1.36.77,1.83.47.47,1.12.76,1.84.76,1.44,0,2.61-1.16,2.61-2.59v-8.39h12.85l8.72,10.14c.46.54,1.14.84,1.84.84,2.08,0,3.2-2.43,1.83-3.98l-6.38-7.26ZM158.15,1035.63v-10.29h15.2c4.35,0,7.31,1.38,7.31,5.14s-2.96,5.15-7.31,5.15h-15.2Z"/>
    <path d="M211.58,1019.89c-11.71,0-18.94,6.05-18.94,16.04s7.23,16.04,18.94,16.04,18.95-6.05,18.95-16.04-7.23-16.04-18.95-16.04ZM211.58,1047.39c-8.31,0-13.63-4.11-13.63-11.46s5.36-11.46,13.63-11.46,13.59,4.11,13.59,11.46-5.31,11.46-13.59,11.46Z"/>
    <path d="M264.67,1046.48h-20.16v-23.09c0-.71-.29-1.36-.77-1.83-.47-.47-1.12-.76-1.84-.76-1.45,0-2.62,1.16-2.62,2.59v24.49c0,1.76,1.44,3.18,3.21,3.18h22.18c1.28,0,2.31-1.02,2.31-2.29s-1.03-2.29-2.31-2.29Z"/>
    <path d="M289.32,1019.89c-11.71,0-18.94,6.05-18.94,16.04s7.23,16.04,18.94,16.04,18.94-6.05,18.94-16.04-7.22-16.04-18.94-16.04ZM289.32,1047.39c-8.32,0-13.63-4.11-13.63-11.46s5.36-11.46,13.63-11.46,13.59,4.11,13.59,11.46-5.32,11.46-13.59,11.46Z"/>
    <path d="M348.09,1034.68h-12.32c-.62,0-1.18.25-1.59.65-.4.4-.65.95-.65,1.57,0,1.23,1,2.23,2.24,2.23h10.47v3.46c-2.22,3.46-6.57,4.84-11.93,4.84-8.75,0-14.11-3.89-14.11-11.5s5.27-11.5,13.85-11.5c4.24,0,7.43,1.02,9.94,3.11.9.75,2.17.86,3.12.18h.01c1.4-1,1.39-3.06-.01-4.05-3.09-2.19-7.42-3.78-13.11-3.78-11.93,0-19.11,6.05-19.11,16.04s7.18,16.04,19.2,16.04c8.36,0,14.42-3.24,17.2-7.69v-6.42c0-1.76-1.43-3.18-3.2-3.18Z"/>
    <path d="M364.46,1021.56c-.47-.47-1.12-.76-1.84-.76-1.44,0-2.61,1.16-2.61,2.59v25.08c0,.71.29,1.36.77,1.83.47.47,1.12.76,1.84.76,1.44,0,2.61-1.16,2.61-2.59v-25.08c0-.71-.29-1.36-.77-1.83ZM367.51,1010.64h-1.64c-.41,0-.8.16-1.1.45l-3.65,3.6c-.99.97-.29,2.65,1.1,2.65.32,0,.62-.1.88-.27l5.3-3.61c1.26-.86.65-2.82-.89-2.82Z"/>
    <path d="M408.59,1047.43l-14.49-26.63h-5.74l-14.53,26.63c-.21.38-.3.78-.3,1.16,0,1.29,1.04,2.47,2.49,2.47.92,0,1.76-.5,2.19-1.31l3.18-5.99h19.55l3.22,6c.43.8,1.27,1.3,2.19,1.3h.06c1.87,0,3.07-1.99,2.18-3.63ZM383.74,1039.35l7.45-14.01,7.44,14.01h-14.89Z"/>
    <path d="M461.74,1020.8h-5.75l-16.51,30.26h5.67l3.87-7.3h19.55l3.92,7.3h5.71l-16.46-30.26ZM451.37,1039.35l7.45-14.01,7.45,14.01h-14.9Z"/>
    <path d="M508.51,1020.8l-12.85,24.95-12.84-24.95h-5.79l15.8,30.26h5.58l15.8-30.26h-5.7Z"/>
    <path d="M535.29,1020.8h-5.74l-16.51,30.26h5.66l3.88-7.3h19.55l3.92,7.3h5.71l-16.47-30.26ZM524.93,1039.35l7.45-14.01,7.44,14.01h-14.89Z"/>
    <path d="M586.81,1020.8v22.96l-22.81-22.96h-5.58v30.26h5.05v-23.86l23.82,23.86h4.62v-30.26h-5.1Z"/>
    <path d="M608.03,1046.61l24.43-22.18v-3.63h-31.49v4.45h23.65l-24.43,22.18v3.63h32.96v-4.45h-25.12Z"/>
    <path d="M659.54,1020.8h-5.74l-16.51,30.26h5.66l3.88-7.3h19.55l3.92,7.3h5.71l-16.47-30.26ZM649.18,1039.35l7.45-14.01,7.44,14.01h-14.89Z"/>
    <path d="M698.13,1020.8h-15.46v30.26h15.46c11.32,0,18.55-5.79,18.55-15.13s-7.23-15.13-18.55-15.13ZM697.74,1046.52h-9.84v-21.18h9.84c8.01,0,13.59,3.59,13.59,10.59s-5.58,10.59-13.59,10.59Z"/>
    <path d="M741.77,1020.8h-5.75l-16.5,30.26h5.66l3.87-7.3h19.56l3.91,7.3h5.71l-16.46-30.26ZM731.4,1039.35l7.45-14.01,7.45,14.01h-14.9Z"/>
  </g>
</svg>